<svg width="16" height="12" viewBox="0 0 16 12" fill="none" xmlns="http://www.w3.org/2000/svg">
<path d="M15.4698 5.83C14.8817 4.30882 13.8608 2.99331 12.5332 2.04604C11.2056 1.09878 9.62953 0.561286 7.99979 0.5C6.37005 0.561286 4.79398 1.09878 3.46639 2.04604C2.1388 2.99331 1.11787 4.30882 0.529787 5.83C0.490071 5.93985 0.490071 6.06015 0.529787 6.17C1.11787 7.69118 2.1388 9.00669 3.46639 9.95396C4.79398 10.9012 6.37005 11.4387 7.99979 11.5C9.62953 11.4387 11.2056 10.9012 12.5332 9.95396C13.8608 9.00669 14.8817 7.69118 15.4698 6.17C15.5095 6.06015 15.5095 5.93985 15.4698 5.83V5.83ZM7.99979 9.25C7.357 9.25 6.72864 9.05939 6.19418 8.70228C5.65972 8.34516 5.24316 7.83758 4.99718 7.24372C4.75119 6.64986 4.68683 5.99639 4.81224 5.36596C4.93764 4.73552 5.24717 4.15642 5.70169 3.7019C6.15621 3.24738 6.73531 2.93785 7.36574 2.81245C7.99618 2.68705 8.64965 2.75141 9.24351 2.99739C9.83737 3.24338 10.3449 3.65994 10.7021 4.1944C11.0592 4.72886 11.2498 5.35721 11.2498 6C11.2485 6.86155 10.9056 7.68743 10.2964 8.29664C9.68722 8.90584 8.86133 9.24868 7.99979 9.25V9.25Z" fill="black"/>
</svg>
